<svg width="1400" height="920" viewBox="0 0 1400 920" fill="none" xmlns="http://www.w3.org/2000/svg">
  <rect width="1400" height="920" fill="#F3F5F7"/>

  <rect x="56" y="40" width="1288" height="68" rx="20" fill="#FFFFFF" stroke="#E5E7EB"/>
  <circle cx="98" cy="74" r="18" fill="#2159B5"/>
  <rect x="132" y="62" width="224" height="10" rx="5" fill="#1F2937"/>
  <rect x="132" y="80" width="170" height="8" rx="4" fill="#9AA3AF"/>
  <rect x="1124" y="58" width="84" height="32" rx="16" fill="#EEF4FF"/>
  <rect x="1220" y="58" width="92" height="32" rx="16" fill="#2159B5"/>

  <rect x="56" y="136" width="1288" height="320" rx="32" fill="#FFFFFF" stroke="#E5E7EB"/>
  <rect x="94" y="176" width="148" height="34" rx="17" fill="#EEF4FF"/>
  <rect x="94" y="238" width="612" height="26" rx="13" fill="#17212F"/>
  <rect x="94" y="274" width="548" height="26" rx="13" fill="#17212F"/>
  <rect x="94" y="326" width="690" height="12" rx="6" fill="#98A2B3"/>
  <rect x="94" y="348" width="622" height="12" rx="6" fill="#A7B0BC"/>
  <rect x="94" y="370" width="582" height="12" rx="6" fill="#B5BDC7"/>
  <rect x="94" y="414" width="172" height="50" rx="18" fill="#2159B5"/>
  <rect x="280" y="414" width="186" height="50" rx="18" fill="#F8FAFC" stroke="#D7DFEA"/>

  <rect x="884" y="174" width="404" height="244" rx="26" fill="#F8FAFC" stroke="#E4EAF1"/>
  <rect x="918" y="208" width="126" height="14" rx="7" fill="#2159B5"/>
  <rect x="918" y="242" width="120" height="72" rx="22" fill="#FFFFFF" stroke="#DFE6EE"/>
  <rect x="1056" y="242" width="120" height="72" rx="22" fill="#FFFFFF" stroke="#DFE6EE"/>
  <rect x="1194" y="242" width="60" height="72" rx="22" fill="#DCE7FF"/>
  <rect x="918" y="330" width="336" height="56" rx="18" fill="#FFFFFF" stroke="#DFE6EE"/>
  <rect x="942" y="350" width="192" height="10" rx="5" fill="#6B7280"/>
  <rect x="1148" y="344" width="82" height="24" rx="12" fill="#EEF4FF"/>

  <rect x="56" y="492" width="622" height="172" rx="28" fill="#FFFFFF" stroke="#E5E7EB"/>
  <rect x="88" y="526" width="168" height="16" rx="8" fill="#17212F"/>
  <rect x="88" y="560" width="526" height="12" rx="6" fill="#98A2B3"/>
  <rect x="88" y="582" width="482" height="12" rx="6" fill="#B1BAC5"/>
  <rect x="88" y="618" width="138" height="36" rx="18" fill="#EEF4FF"/>

  <rect x="722" y="492" width="622" height="172" rx="28" fill="#FFFFFF" stroke="#E5E7EB"/>
  <rect x="754" y="526" width="188" height="16" rx="8" fill="#17212F"/>
  <rect x="754" y="560" width="514" height="12" rx="6" fill="#98A2B3"/>
  <rect x="754" y="582" width="456" height="12" rx="6" fill="#B1BAC5"/>
  <rect x="754" y="618" width="138" height="36" rx="18" fill="#2159B5"/>

  <rect x="56" y="700" width="1288" height="164" rx="30" fill="#FFFFFF" stroke="#E5E7EB"/>
  <rect x="90" y="736" width="184" height="16" rx="8" fill="#17212F"/>
  <rect x="90" y="774" width="1180" height="10" rx="5" fill="#E8EDF3"/>
  <rect x="90" y="798" width="1044" height="10" rx="5" fill="#EDF2F7"/>
  <rect x="1184" y="760" width="122" height="42" rx="21" fill="#2159B5"/>

  <text x="94" y="200" fill="#2159B5" font-size="18" font-family="Arial, sans-serif" font-weight="700">LIGHT GRAY + BLUE</text>
  <text x="94" y="240" fill="#667085" font-size="20" font-family="Arial, sans-serif">연한 회색 바탕에 블루를 포인트로만 사용한 전문 챗봇 메인 시안</text>

  <rect x="92" y="876" width="18" height="18" rx="4" fill="#F3F5F7" stroke="#D8DEE8"/>
  <text x="120" y="891" fill="#5B6574" font-size="18" font-family="Arial, sans-serif">Background  #F3F5F7</text>
  <rect x="320" y="876" width="18" height="18" rx="4" fill="#2159B5"/>
  <text x="348" y="891" fill="#5B6574" font-size="18" font-family="Arial, sans-serif">Accent  #2159B5</text>
  <rect x="516" y="876" width="18" height="18" rx="4" fill="#DCE7FF"/>
  <text x="544" y="891" fill="#5B6574" font-size="18" font-family="Arial, sans-serif">Soft Blue  #DCE7FF</text>
  <rect x="760" y="876" width="18" height="18" rx="4" fill="#1F2937"/>
  <text x="788" y="891" fill="#5B6574" font-size="18" font-family="Arial, sans-serif">Text  #1F2937</text>
</svg>
