<svg width="1200" height="800" viewBox="0 0 1200 800" fill="none" xmlns="http://www.w3.org/2000/svg">
  <rect width="1200" height="800" rx="36" fill="#F4F7FB"/>
  <rect x="48" y="48" width="1104" height="704" rx="30" fill="#FFFFFF"/>
  <rect x="48" y="48" width="1104" height="180" rx="30" fill="url(#hero)"/>
  <text x="84" y="114" fill="white" font-size="22" font-family="Arial, sans-serif" font-weight="700">OPTION A · Trust / QA</text>
  <text x="84" y="178" fill="white" font-size="54" font-family="Arial, sans-serif" font-weight="700">Navy + Blue</text>
  <text x="84" y="224" fill="#D9E8FF" font-size="24" font-family="Arial, sans-serif">정확성, 안정성, 신뢰감이 강한 정석형 톤</text>

  <rect x="84" y="282" width="210" height="168" rx="24" fill="#12325C"/>
  <rect x="314" y="282" width="210" height="168" rx="24" fill="#2159B5"/>
  <rect x="544" y="282" width="210" height="168" rx="24" fill="#EAF1FB"/>
  <rect x="774" y="282" width="210" height="168" rx="24" fill="#F8FAFC" stroke="#D5DFEC"/>

  <text x="84" y="484" fill="#172334" font-size="22" font-family="Arial, sans-serif" font-weight="700">추천 사용처</text>
  <text x="84" y="520" fill="#5F6F83" font-size="22" font-family="Arial, sans-serif">QA, SOP, 문서 기반 B2B 도구, 관리자 대시보드</text>

  <rect x="84" y="566" width="474" height="126" rx="24" fill="#F8FAFC" stroke="#D9E2EF"/>
  <text x="114" y="616" fill="#172334" font-size="28" font-family="Arial, sans-serif" font-weight="700">장점</text>
  <text x="114" y="654" fill="#5F6F83" font-size="22" font-family="Arial, sans-serif">가장 안정적이고, 포트폴리오/실무 제품 모두에 잘 맞음</text>

  <rect x="592" y="566" width="474" height="126" rx="24" fill="#EFF5FF" stroke="#C6D7F3"/>
  <text x="622" y="616" fill="#173563" font-size="28" font-family="Arial, sans-serif" font-weight="700">인상</text>
  <text x="622" y="654" fill="#40618F" font-size="22" font-family="Arial, sans-serif">“믿을 수 있는 제약 QA 시스템” 같은 느낌</text>

  <text x="115" y="340" fill="white" font-size="24" font-family="Arial, sans-serif" font-weight="700">#12325C</text>
  <text x="345" y="340" fill="white" font-size="24" font-family="Arial, sans-serif" font-weight="700">#2159B5</text>
  <text x="575" y="340" fill="#173563" font-size="24" font-family="Arial, sans-serif" font-weight="700">#EAF1FB</text>
  <text x="805" y="340" fill="#405265" font-size="24" font-family="Arial, sans-serif" font-weight="700">#F8FAFC</text>

  <defs>
    <linearGradient id="hero" x1="48" y1="48" x2="975" y2="286" gradientUnits="userSpaceOnUse">
      <stop stop-color="#102949"/>
      <stop offset="0.52" stop-color="#19488B"/>
      <stop offset="1" stop-color="#7EACEC"/>
    </linearGradient>
  </defs>
</svg>
